<?xml version="1.0" standalone="no"?>
<!DOCTYPE svg PUBLIC "-//W3C//DTD SVG 20010904//EN"
 "http://www.w3.org/TR/2001/REC-SVG-20010904/DTD/svg10.dtd">
<svg version="1.0" xmlns="http://www.w3.org/2000/svg"
 width="500.000000pt" height="500.000000pt" viewBox="0 0 500.000000 500.000000"
 preserveAspectRatio="xMidYMid meet">
<metadata>
Created by potrace 1.14, written by Peter Selinger 2001-2017
</metadata>
<g transform="translate(0.000000,500.000000) scale(0.100000,-0.100000)"
fill="#000000" stroke="none">
<path d="M1910 4785 c0 -18 32 -67 67 -104 24 -24 41 -47 38 -49 -3 -3 -25 9
-49 26 -24 18 -47 32 -51 32 -3 0 -21 11 -39 25 -57 43 -62 27 -8 -25 29 -28
52 -54 52 -59 0 -12 -130 17 -160 36 -14 9 -6 -2 18 -24 63 -60 56 -69 -15
-17 -40 30 -63 32 -37 2 l19 -22 -27 20 c-15 10 -28 24 -28 29 -2 15 -100 87
-100 73 0 -7 15 -29 33 -48 59 -64 66 -77 27 -49 -19 13 -37 26 -40 29 -3 3
-14 12 -25 20 -15 10 -13 7 5 -15 14 -16 31 -36 38 -45 7 -8 32 -34 55 -58 38
-39 39 -42 17 -38 -14 2 -32 5 -40 5 -8 1 -32 17 -53 37 -45 43 -71 41 -31 -3
32 -34 54 -68 54 -82 0 -16 -90 24 -106 47 -8 12 -20 20 -25 16 -5 -3 1 -19
13 -37 l22 -31 -27 19 c-31 23 -31 46 1 60 27 12 29 25 2 18 -11 -3 -20 -1
-20 5 0 5 -11 13 -25 16 -16 4 -22 11 -19 21 5 12 -1 11 -35 -3 -30 -13 -41
-24 -43 -42 -2 -19 -10 -26 -30 -28 -16 -2 -28 -9 -28 -18 0 -8 -7 -14 -15
-14 -8 0 -31 -9 -51 -21 -21 -11 -46 -18 -56 -16 -10 3 -16 1 -12 -4 3 -5 0
-9 -7 -9 -7 0 -4 -7 7 -15 25 -19 12 -19 -33 0 -31 13 -34 13 -23 0 10 -12 10
-15 -4 -15 -9 0 -16 -4 -16 -8 0 -5 -10 -8 -23 -7 -12 1 -26 0 -32 -4 -5 -3
-26 -7 -45 -9 -75 -6 -85 -8 -97 -15 -7 -5 -17 -5 -23 -2 -5 3 -10 4 -10 1 0
-3 16 -12 35 -21 20 -8 43 -22 52 -30 10 -11 25 -14 40 -10 21 5 22 4 11 -15
-7 -11 -17 -20 -23 -20 -10 0 -75 -57 -75 -66 0 -3 9 0 20 6 30 16 24 1 -15
-37 -49 -48 -66 -76 -70 -117 l-3 -35 39 24 c21 14 53 25 71 27 18 1 39 6 46
11 22 17 14 -18 -14 -58 -20 -30 -23 -40 -12 -46 7 -5 9 -9 3 -10 -30 -2 -44
-11 -88 -52 -28 -25 -44 -47 -39 -51 6 -3 13 -2 17 4 10 16 35 12 35 -6 0 -23
-37 -72 -97 -129 -52 -50 -65 -69 -40 -60 6 3 29 6 50 8 34 4 37 2 31 -17 -5
-19 -51 -66 -64 -66 -3 0 -11 -9 -17 -20 -11 -17 -10 -18 5 -13 9 3 22 10 29
15 29 23 31 0 2 -31 -19 -21 -33 -30 -38 -23 -4 6 -16 -4 -31 -26 -13 -20 -30
-42 -38 -49 -10 -9 -11 -16 -2 -32 7 -15 8 -21 0 -21 -7 0 -9 -13 -4 -37 9
-49 9 -49 38 -30 23 16 25 15 30 -1 8 -23 -23 -86 -64 -132 -31 -36 -35 -67
-11 -86 13 -10 10 -23 -21 -85 -45 -91 -55 -155 -27 -164 19 -6 19 -7 -2 -43
-12 -20 -29 -43 -37 -49 -9 -7 -12 -13 -8 -13 4 0 -7 -25 -24 -56 l-32 -55 23
-26 c13 -15 19 -23 13 -20 -6 4 -25 -14 -43 -38 -18 -25 -35 -45 -39 -45 -4 0
-13 -10 -21 -22 -13 -22 -12 -22 15 2 16 14 34 32 40 40 32 40 45 54 39 43 -3
-7 -2 -13 4 -13 12 0 35 66 28 83 -2 7 0 23 6 37 5 14 11 30 12 37 2 6 8 19
14 30 8 14 11 14 11 3 0 -10 7 -7 21 10 24 29 18 16 -29 -60 -25 -41 -27 -48
-8 -25 14 16 27 27 30 24 8 -8 -5 -49 -15 -44 -4 3 -8 -12 -8 -32 -1 -77 -8
-101 -35 -134 -16 -19 -32 -34 -36 -34 -7 0 -51 -39 -104 -91 -11 -12 -35 -28
-53 -37 -17 -9 -35 -22 -38 -28 -10 -15 69 26 84 45 7 9 17 14 21 11 4 -3 23
6 41 18 57 38 59 39 53 23 -7 -18 4 -20 40 -7 13 6 26 20 29 33 4 22 4 22 6 1
1 -17 6 -20 23 -16 23 6 23 5 -2 -17 -14 -12 -41 -29 -60 -37 -48 -20 -93 -77
-95 -119 -2 -40 8 -43 31 -9 20 30 39 34 23 4 -8 -15 -8 -24 0 -32 6 -6 11
-18 11 -26 0 -9 4 -23 9 -30 8 -13 18 -11 60 12 l50 28 -4 -23 c-10 -57 -13
-98 -7 -102 4 -2 30 16 57 40 52 46 71 55 61 28 -3 -9 -6 -21 -6 -28 0 -7 -10
-22 -21 -35 -15 -16 -21 -35 -21 -64 1 -22 -4 -49 -10 -60 -5 -11 -12 -34 -15
-51 -2 -17 -6 -42 -9 -56 -2 -14 -7 -69 -11 -123 -5 -93 -5 -97 13 -91 11 4
16 4 12 0 -3 -4 0 -22 7 -40 9 -22 13 -61 10 -122 -3 -81 -3 -86 9 -58 8 17
17 45 21 63 4 17 10 29 15 26 10 -6 5 -93 -9 -157 -10 -48 -6 -82 9 -73 5 3
13 -15 18 -41 9 -40 7 -51 -14 -87 -13 -23 -24 -45 -24 -49 0 -15 28 4 38 25
6 12 11 17 11 10 2 -22 31 -2 31 21 1 20 1 20 11 3 9 -15 6 -24 -14 -45 -34
-38 -39 -57 -17 -77 18 -17 19 -17 15 4 -2 11 1 21 7 21 7 0 9 -13 5 -34 -7
-44 1 -51 24 -23 l18 22 1 -27 c0 -16 -4 -28 -9 -28 -5 0 0 -18 10 -40 11 -23
24 -38 28 -35 5 2 14 -16 20 -41 6 -24 16 -42 21 -39 6 3 10 0 10 -7 0 -7 11
-30 25 -50 13 -19 26 -48 29 -63 5 -29 16 -47 16 -27 0 7 5 12 11 12 6 0 9 -7
5 -15 -3 -8 -1 -15 4 -15 6 0 10 20 10 45 0 25 5 45 10 45 14 0 12 43 -2 59
-11 11 -10 13 4 8 11 -4 19 0 23 14 4 10 14 19 24 19 14 0 18 -9 19 -43 1 -27
8 -47 20 -57 9 -8 16 -22 14 -32 -2 -9 2 -19 7 -23 6 -3 11 -17 11 -30 0 -13
5 -27 12 -31 8 -5 9 -2 4 11 -4 12 0 24 14 37 20 19 20 18 20 -16 0 -19 5 -38
10 -41 5 -3 10 -3 11 2 4 43 19 83 19 50 0 -9 5 -17 11 -17 7 0 9 10 5 26 -14
55 -15 87 -2 40 8 -27 22 -56 30 -65 15 -14 16 -13 16 12 0 43 17 23 25 -30 4
-29 10 -42 15 -33 4 7 12 10 18 6 6 -3 15 2 21 11 9 16 11 14 17 -15 4 -18 11
-35 17 -39 6 -4 7 -1 2 7 -5 8 -4 11 3 7 5 -4 8 -16 5 -28 -3 -12 -1 -24 5
-28 6 -3 19 -26 30 -51 14 -34 20 -40 25 -26 4 10 3 15 -3 11 -6 -3 -10 4 -9
17 0 13 3 17 6 11 9 -24 18 -13 20 23 2 35 9 52 17 43 10 -10 18 -68 21 -149
2 -47 4 -87 4 -89 1 -2 10 7 21 20 17 21 19 22 20 6 0 -11 5 -15 11 -11 6 3 9
22 6 43 -3 20 -3 28 -1 19 3 -10 10 -18 15 -18 5 0 8 -3 8 -8 -4 -22 2 -64 8
-59 3 4 6 23 5 42 -1 19 3 37 7 40 5 3 7 19 5 35 -4 21 -1 32 9 36 15 5 15 20
2 126 -4 32 -2 36 13 31 22 -9 43 -36 32 -43 -5 -3 6 -14 23 -24 32 -18 32
-18 13 2 -13 15 -15 25 -9 37 9 15 13 13 36 -15 15 -17 27 -36 27 -42 0 -6 12
-22 26 -35 15 -14 23 -30 20 -39 -8 -20 -26 -8 -26 16 0 10 -9 22 -20 25 -11
3 -20 11 -20 16 0 5 -4 9 -10 9 -5 0 -10 -6 -10 -12 1 -19 35 -89 41 -84 3 3
11 -4 18 -16 7 -11 8 -17 2 -13 -6 3 -11 -1 -11 -9 0 -9 4 -16 8 -16 11 0 32
-45 32 -69 0 -9 11 -32 25 -51 28 -38 33 -25 8 23 -15 30 -15 31 0 18 15 -11
17 -11 17 1 0 8 -7 23 -15 34 -25 32 -19 49 10 30 18 -12 25 -13 25 -4 0 9 3
9 10 -2 5 -8 13 -11 17 -6 4 4 -1 15 -12 24 -12 10 -24 26 -28 37 -5 15 -1 13
18 -9 29 -31 30 -31 43 4 8 21 11 15 20 -45 6 -38 13 -89 16 -112 5 -42 24
-83 38 -83 5 0 8 -7 8 -15 0 -29 19 -14 30 23 5 20 14 44 19 52 9 13 11 12 16
-1 3 -9 4 -28 1 -43 -3 -15 -1 -24 5 -21 5 4 9 11 9 16 0 5 7 26 15 46 14 34
17 35 32 21 15 -15 13 -20 -16 -59 -17 -24 -31 -51 -31 -62 0 -16 5 -14 37 12
27 23 40 28 50 20 7 -6 32 -9 57 -8 l44 4 -29 -36 c-34 -43 -36 -54 -10 -39
28 14 41 12 35 -5 -4 -11 -2 -13 9 -9 8 3 18 15 21 27 3 12 12 31 21 42 14 18
14 17 1 -17 -8 -21 -12 -38 -8 -38 3 0 1 -5 -6 -12 -7 -7 -12 -19 -12 -28 0
-9 7 -4 18 13 9 15 22 27 30 27 7 0 18 11 24 25 10 22 20 29 39 27 4 -1 10 11
14 26 12 51 58 143 69 139 6 -2 10 -24 9 -48 l-1 -44 28 34 c15 18 31 48 35
67 3 19 12 34 19 34 7 0 18 11 24 24 12 27 48 51 56 38 3 -5 -6 -35 -18 -68
-57 -142 -41 -135 41 16 12 23 13 20 9 -36 -2 -34 -9 -71 -15 -83 -7 -11 -8
-21 -3 -21 4 0 30 43 57 95 49 92 64 111 66 80 4 -40 3 -41 -28 -116 -16 -40
-26 -109 -15 -109 8 0 45 65 48 85 1 7 5 23 9 35 5 17 9 19 15 10 6 -9 11 -1
16 25 7 37 40 105 51 105 12 0 -7 -100 -24 -132 -17 -33 -25 -108 -11 -108 7
0 68 78 101 130 8 14 18 45 20 70 5 47 56 170 70 170 14 0 -1 -82 -27 -147
-18 -47 -20 -60 -9 -56 18 7 61 95 68 142 8 47 27 121 31 121 14 0 154 -139
154 -153 0 -5 -13 1 -30 13 -33 24 -38 14 -14 -32 10 -20 14 -42 9 -64 -3 -19
-1 -42 4 -53 9 -16 8 -19 -7 -17 -12 2 -17 12 -16 35 2 26 -1 30 -11 21 -11
-9 -11 -18 -4 -38 6 -15 10 -61 10 -102 -1 -74 -1 -75 15 -45 18 34 22 49 23
88 1 45 21 21 21 -25 0 -23 2 -39 4 -37 5 5 14 53 15 82 1 10 6 15 11 12 6 -4
8 -10 5 -15 -7 -11 5 -41 15 -35 8 5 21 89 24 152 1 18 5 36 9 39 7 7 11 -30
8 -71 -1 -19 -1 -19 9 -2 12 19 7 89 -10 132 -6 17 -6 25 1 25 5 0 15 -13 20
-30 6 -16 15 -27 20 -24 5 3 5 13 -1 24 -14 26 -13 50 3 50 6 0 20 -19 31 -41
10 -22 21 -38 24 -35 2 3 -1 12 -8 21 -8 10 -9 15 -1 15 6 0 17 -15 25 -33
l14 -32 1 33 c1 17 -3 32 -7 32 -5 0 -9 7 -9 15 0 9 5 14 11 12 13 -4 26 -51
42 -162 7 -44 24 -72 24 -39 0 30 11 36 26 16 12 -16 13 -16 14 3 0 12 -5 26
-12 33 -7 7 -9 12 -6 12 4 0 3 14 -2 30 -5 19 -5 28 1 25 5 -4 9 -12 9 -20 0
-7 12 -33 26 -56 16 -27 23 -34 19 -19 -4 14 -8 39 -10 55 -1 17 -3 33 -5 38
-6 18 -5 32 4 39 9 6 -3 83 -18 118 -4 11 0 16 13 17 18 2 20 -5 20 -65 1 -37
3 -76 5 -87 3 -11 5 -29 6 -40 l1 -20 9 20 c5 11 9 36 10 55 l2 35 7 -30 c7
-34 17 -25 19 19 1 16 5 32 8 35 3 3 5 -15 3 -41 -3 -27 -1 -48 3 -48 5 0 9
12 9 28 1 15 3 36 4 47 2 11 6 36 8 55 3 19 6 41 6 49 1 11 4 11 17 0 8 -7 15
-26 14 -43 -3 -54 -1 -63 11 -43 5 9 8 21 5 26 -3 4 2 17 10 27 14 17 15 17
10 1 -3 -10 -2 -15 3 -12 6 3 14 -3 20 -12 9 -15 12 -16 20 -3 5 8 8 17 5 21
-2 4 0 10 5 13 4 3 14 33 22 66 16 71 29 78 29 15 0 -32 4 -45 14 -45 11 0 13
10 10 38 -3 34 -3 35 10 18 14 -17 42 -14 31 4 -3 5 -1 12 5 15 6 4 10 23 9
43 -2 20 4 48 11 62 8 14 13 29 12 33 -1 5 2 6 7 3 5 -4 12 0 15 6 5 10 7 10
12 0 8 -17 34 -42 44 -42 12 0 37 69 49 136 19 101 22 176 12 249 -6 39 -12
93 -14 120 -3 43 -2 46 6 23 16 -41 22 -34 20 20 -2 38 -1 43 7 25 10 -24 26
-32 17 -9 -3 7 -1 18 3 22 5 5 10 24 12 42 1 17 4 32 5 32 2 0 9 -15 17 -32
18 -42 20 -23 3 28 -7 22 -12 46 -12 54 1 8 3 21 3 28 1 7 7 10 12 7 6 -3 10
4 10 16 0 18 2 19 15 9 13 -11 15 -5 11 49 -2 33 -8 66 -13 73 -6 7 -9 22 -7
33 2 11 -6 46 -17 79 -11 32 -17 61 -15 64 3 3 0 12 -7 20 -10 13 -9 14 1 8
11 -7 12 -4 4 10 -5 11 -12 48 -16 84 -3 36 -8 77 -10 91 -5 30 -32 86 -44 91
-5 1 -13 14 -16 28 -6 21 -2 19 26 -15 61 -73 110 -125 118 -125 11 0 -6 71
-18 79 -6 3 -14 20 -17 36 -6 23 6 12 50 -48 56 -77 87 -100 47 -35 -24 39
-35 85 -21 93 5 4 9 1 9 -6 0 -7 17 -33 37 -58 48 -60 61 -73 39 -38 -9 16
-16 33 -14 38 2 6 15 -8 28 -29 33 -53 45 -44 14 11 -37 66 -61 118 -75 162
-12 41 -39 87 -39 70 -1 -6 -7 1 -15 15 -8 14 -12 34 -9 45 4 16 3 17 -5 6
-10 -16 -13 -9 -26 73 -6 36 -5 39 10 26 15 -12 16 -11 9 16 -4 16 -11 37 -15
46 -11 21 -11 31 0 24 4 -3 6 6 3 19 -2 14 -8 22 -13 20 -4 -3 -13 3 -18 14
-14 25 -14 31 -1 31 6 0 10 -10 11 -22 0 -13 3 -17 6 -11 4 13 66 -52 75 -79
2 -6 9 -8 16 -4 8 5 6 17 -8 43 -13 25 -16 41 -10 53 6 11 2 45 -11 99 -12 45
-17 90 -13 99 4 9 8 22 9 28 2 6 6 21 10 33 9 29 -9 26 -25 -4 -7 -14 -22 -25
-32 -25 -10 0 -18 -4 -18 -10 0 -5 -5 -10 -11 -10 -14 0 -3 51 15 65 7 6 11
15 9 22 -2 7 1 21 7 33 13 24 3 50 -11 29 -7 -11 -9 -10 -9 4 0 21 13 22 30 2
7 -8 17 -15 22 -15 6 0 4 8 -3 17 -12 14 -12 16 0 9 11 -7 13 0 9 33 -2 22 0
41 4 41 5 0 8 -6 8 -12 0 -10 2 -10 9 0 10 16 -43 77 -58 67 -6 -3 -17 10 -25
30 -15 35 -31 45 -38 24 -2 -6 -15 5 -28 25 -14 20 -31 34 -37 31 -7 -2 -12
-1 -12 3 4 24 -2 52 -10 47 -9 -5 -27 32 -23 48 1 5 -2 6 -7 3 -9 -6 -24 33
-27 72 -1 24 11 30 19 10 2 -7 7 -11 9 -8 3 3 -1 26 -10 53 -14 45 -14 48 5
65 13 11 19 26 16 45 -3 19 1 27 11 27 8 0 18 -5 21 -10 4 -6 16 -3 32 10 14
11 35 20 47 20 20 1 20 1 -4 23 -14 12 -41 34 -60 50 -34 27 -34 28 -16 42 11
8 16 15 10 15 -5 0 -1 5 9 11 9 6 26 7 37 4 20 -6 20 -6 0 28 -14 24 -17 37
-10 42 12 8 70 -13 70 -25 0 -4 9 -10 21 -13 11 -3 19 -2 17 1 -41 82 -90 136
-118 127 -12 -4 -20 -2 -20 5 0 6 5 8 10 5 6 -3 10 -3 10 1 0 12 -62 64 -76
64 -7 0 -15 4 -18 9 -11 18 22 19 73 1 l51 -17 -17 21 c-10 11 -28 29 -41 39
-32 26 -14 47 36 41 l37 -4 -28 21 c-15 11 -25 25 -22 29 7 12 -36 41 -48 33
-6 -3 -7 -1 -3 6 5 8 22 10 48 6 l41 -6 -49 42 c-61 52 -63 53 -43 47 9 -4 16
-1 16 6 0 7 -5 13 -11 14 -6 0 -24 3 -41 6 -16 3 -44 7 -62 10 -17 2 -36 7
-42 10 -5 3 -11 1 -13 -6 -6 -17 -88 20 -88 39 0 8 -14 28 -30 45 l-30 30 30
-6 c16 -3 45 -8 63 -11 55 -10 7 13 -64 30 -35 8 -65 19 -67 25 -2 5 -13 10
-24 10 -11 0 -31 11 -43 24 -22 23 -24 24 -88 12 -36 -7 -72 -9 -79 -5 -13 9
18 14 52 9 11 -1 12 1 3 10 -18 19 -98 19 -161 0 -88 -27 -122 -33 -122 -21 0
6 7 11 15 11 8 0 15 5 15 10 0 6 6 10 13 10 8 0 22 10 33 21 19 22 19 22 -5 8
-14 -9 -25 -10 -27 -4 -3 6 -52 10 -124 9 -66 0 -120 3 -120 7 0 5 25 16 56
25 35 10 52 19 44 24 -8 5 -3 10 15 14 15 4 25 9 23 11 -7 7 -80 -15 -132 -41
-28 -13 -57 -24 -65 -24 -20 1 91 57 142 72 20 6 37 14 37 17 0 4 8 7 18 8 41
4 98 16 112 24 11 7 8 8 -10 5 -14 -3 -50 -7 -80 -10 -30 -3 -78 -12 -107 -19
-44 -12 -53 -12 -57 0 -4 9 -15 12 -33 8 -16 -4 -39 -8 -53 -10 -14 -2 -41
-10 -60 -18 -21 -9 -45 -11 -60 -6 -26 7 -25 8 22 14 16 2 38 7 49 10 33 11 2
25 -32 15 -17 -5 -31 -5 -35 1 -3 5 -12 3 -20 -6 -8 -8 -13 -16 -12 -18 2 -2
-3 -11 -10 -20 -9 -10 -26 -14 -50 -12 -54 4 -54 4 -48 14 6 9 -14 8 -67 -5
-22 -5 -26 -4 -21 10 5 12 0 16 -22 17 -16 0 -41 3 -56 5 -16 3 -28 0 -28 -6
0 -6 5 -8 10 -5 6 3 10 4 10 1 0 -3 -14 -13 -30 -21 -29 -15 -32 -15 -70 12
-22 15 -42 36 -46 46 -3 9 -9 17 -14 17 -10 0 39 -91 54 -102 7 -5 6 -8 -2 -8
-7 0 -10 -5 -6 -11 15 -25 -20 -27 -42 -3 -13 13 -29 21 -37 18 -8 -3 -18 0
-23 7 -4 8 -3 10 4 5 15 -9 15 -1 1 25 -7 13 -17 18 -27 15 -10 -4 -7 2 7 12
l24 19 -33 7 c-19 3 -38 1 -46 -5 -11 -9 -14 -8 -14 4 0 14 -5 13 -35 -4 -19
-12 -35 -27 -35 -35 0 -8 -10 -14 -24 -14 -13 0 -32 -3 -41 -6 -13 -5 -14 -8
-3 -15 10 -7 10 -9 0 -9 -7 0 -38 27 -69 60 -30 33 -61 60 -69 60 -20 0 -17
-11 9 -35 12 -11 36 -39 54 -62 26 -33 30 -42 17 -47 -10 -4 -34 12 -67 43
-53 49 -177 117 -177 96z m500 -95 c8 -5 12 -11 10 -14 -3 -2 -14 2 -24 10
-22 15 -10 19 14 4z m740 -4 c0 -2 -7 -7 -16 -10 -8 -3 -12 -2 -9 4 6 10 25
14 25 6z m-90 -36 c12 -8 11 -10 -7 -10 -12 0 -30 -3 -40 -6 -16 -5 -16 -4 1
10 23 19 26 19 46 6z m335 -59 c-11 -9 -75 -23 -75 -16 0 2 15 9 33 14 43 12
53 13 42 2z m104 -51 c-6 -5 -18 -6 -26 -3 -19 8 -16 11 13 11 17 0 22 -3 13
-8z m-1694 -20 c3 -5 -4 -6 -15 -3 -11 3 -22 9 -25 13 -3 5 4 6 15 3 11 -3 22
-9 25 -13z m-808 -160 c3 -10 2 -11 -4 -4 -4 6 -15 14 -23 17 -11 5 -9 6 4 4
11 -1 21 -9 23 -17z m3233 -463 c0 -5 -4 -5 -10 -2 -5 3 -10 14 -10 23 0 15 2
15 10 2 5 -8 10 -19 10 -23z m20 -223 c0 -2 -14 -4 -31 -4 -16 0 -28 4 -25 9
5 8 56 3 56 -5z m-3398 -76 c-7 -7 -12 -8 -12 -2 0 14 12 26 19 19 2 -3 -1
-11 -7 -17z m-22 -32 c0 -3 -4 -8 -10 -11 -5 -3 -10 -1 -10 4 0 6 5 11 10 11
6 0 10 -2 10 -4z m-10 -35 c0 -12 -29 -41 -41 -41 -16 0 -10 29 9 39 22 13 32
14 32 2z m3446 -546 c1 -8 -2 -17 -7 -21 -5 -3 -9 7 -9 22 0 27 12 26 16 -1z
m123 -681 c21 -27 28 -64 12 -64 -5 0 -8 8 -6 18 1 9 0 11 -2 5 -3 -7 -9 -13
-15 -13 -5 0 -8 7 -4 15 3 8 1 15 -5 15 -6 0 -9 6 -6 14 3 7 0 19 -6 25 -8 8
-8 11 0 11 6 0 21 -12 32 -26z m-3804 -37 c-8 -20 -17 -37 -20 -37 -8 0 7 64
19 79 17 22 18 -2 1 -42z m3541 32 c19 -11 34 -25 34 -30 0 -7 -62 29 -79 47
-12 12 15 2 45 -17z m104 -180 c0 -4 3 -15 7 -25 8 -22 -13 -10 -26 15 -7 13
-6 18 5 18 7 0 14 -4 14 -8z m-3410 -519 c0 -5 -2 -10 -4 -10 -3 0 -8 5 -11
10 -3 6 -1 10 4 10 6 0 11 -4 11 -10z m3380 -161 c0 -6 -4 -7 -10 -4 -5 3 -10
11 -10 16 0 6 5 7 10 4 6 -3 10 -11 10 -16z m-3413 -131 c-3 -8 -6 -5 -6 6 -1
11 2 17 5 13 3 -3 4 -12 1 -19z m183 -204 c0 -13 4 -24 10 -24 5 0 7 -7 3 -17
-5 -13 -8 -12 -16 8 -15 40 -19 71 -7 64 5 -3 10 -17 10 -31z m-51 -60 c-14
-13 -16 -13 -16 0 0 8 4 13 9 10 4 -3 8 0 8 7 0 7 3 9 7 5 4 -3 0 -13 -8 -22z
m104 -89 c4 -8 2 -17 -3 -20 -6 -4 -10 3 -10 14 0 25 6 27 13 6z m27 -145 c0
-5 -2 -10 -4 -10 -3 0 -8 5 -11 10 -3 6 -1 10 4 10 6 0 11 -4 11 -10z m-2 -90
c1 -23 0 -23 -8 -5 -5 11 -8 34 -8 50 0 29 0 29 8 5 4 -14 8 -36 8 -50z m2647
31 c-3 -5 -1 -12 5 -16 5 -3 10 -16 10 -28 0 -20 -2 -19 -20 8 -12 20 -17 39
-13 54 5 20 7 21 15 7 5 -9 7 -20 3 -25z m-1900 -101 c-3 -5 -10 -10 -16 -10
-5 0 -9 5 -9 10 0 6 7 10 16 10 8 0 12 -4 9 -10z m1549 -75 c3 -8 1 -15 -3
-15 -5 0 -11 7 -15 15 -3 8 -1 15 3 15 5 0 11 -7 15 -15z m-1814 -45 c0 -11
-4 -20 -8 -20 -4 0 -8 9 -8 20 0 11 4 20 8 20 4 0 8 -9 8 -20z m120 -100 c0
-5 -2 -10 -4 -10 -3 0 -8 5 -11 10 -3 6 -1 10 4 10 6 0 11 -4 11 -10z m825
-20 c-9 -16 -18 -30 -21 -30 -2 0 2 14 11 30 9 17 18 30 21 30 2 0 -2 -13 -11
-30z m910 -90 c3 -5 1 -10 -4 -10 -6 0 -11 5 -11 10 0 6 2 10 4 10 3 0 8 -4
11 -10z"/>
<path d="M2895 4700 c-3 -5 -2 -10 4 -10 5 0 13 5 16 10 3 6 2 10 -4 10 -5 0
-13 -4 -16 -10z"/>
<path d="M4187 3579 c7 -7 15 -10 18 -7 3 3 -2 9 -12 12 -14 6 -15 5 -6 -5z"/>
<path d="M4391 2977 c-13 -21 -12 -21 5 -5 10 10 16 20 13 22 -3 3 -11 -5 -18
-17z"/>
<path d="M560 2762 c0 -7 -7 -9 -17 -5 -15 5 -16 3 -5 -8 9 -10 15 -10 24 -1
6 6 9 15 5 19 -4 3 -7 1 -7 -5z"/>
<path d="M766 1244 c-4 -14 -5 -28 -3 -31 3 -2 8 8 11 23 4 14 5 28 3 31 -3 2
-8 -8 -11 -23z"/>
<path d="M739 1073 c-13 -16 -12 -17 4 -4 16 13 21 21 13 21 -2 0 -10 -8 -17
-17z"/>
<path d="M1946 294 c-8 -20 -8 -24 2 -24 4 0 8 9 9 20 2 24 -3 26 -11 4z"/>
</g>
</svg>
